<?xml version="1.0" standalone="no"?>
<!DOCTYPE svg PUBLIC "-//W3C//DTD SVG 20010904//EN"
 "http://www.w3.org/TR/2001/REC-SVG-20010904/DTD/svg10.dtd">
<svg version="1.0" xmlns="http://www.w3.org/2000/svg"
 width="204.000000pt" height="150.000000pt" viewBox="0 0 204.000000 150.000000"
 preserveAspectRatio="xMidYMid meet">
<metadata>
Created by potrace 1.16, written by Peter Selinger 2001-2019
</metadata>
<g transform="translate(0.000000,150.000000) scale(0.100000,-0.100000)"
fill="#000000" stroke="none">
<path d="M1096 1332 c-3 -4 -36 -89 -75 -188 -145 -374 -211 -537 -226 -560
-12 -19 -21 -23 -41 -18 -14 4 -156 1 -315 -6 -261 -12 -289 -15 -289 -31 0
-15 23 -17 257 -22 209 -4 275 -9 348 -25 131 -30 203 -60 252 -107 37 -36 43
-47 43 -84 0 -48 -11 -73 -49 -115 l-26 -30 35 22 c127 77 200 155 200 211 0
69 -94 130 -244 159 -100 20 -105 26 -81 107 l16 55 82 0 c61 1 91 6 117 20
l35 19 -107 1 c-60 0 -108 2 -108 4 0 10 143 382 149 389 10 10 250 -522 251
-555 0 -23 -38 -48 -73 -48 -16 0 -26 -4 -22 -10 8 -13 325 -14 325 -1 0 5
-10 13 -22 17 -56 16 -52 10 -254 459 -84 187 -157 341 -163 343 -5 2 -12 -1
-15 -6z"/>
</g>
</svg>
