<?xml version="1.0" standalone="no"?>
<!DOCTYPE svg PUBLIC "-//W3C//DTD SVG 20010904//EN"
 "http://www.w3.org/TR/2001/REC-SVG-20010904/DTD/svg10.dtd">
<svg version="1.0" xmlns="http://www.w3.org/2000/svg"
 width="100.000000pt" height="100.000000pt" viewBox="0 0 100.000000 100.000000"
 preserveAspectRatio="xMidYMid meet">

<g transform="translate(0.000000,100.000000) scale(0.100000,-0.100000)"
fill="#000000" stroke="none">
<path d="M130 750 c0 -73 2 -80 20 -80 19 0 20 -7 20 -98 l0 -98 -50 -37 c-27
-21 -50 -44 -50 -52 0 -7 23 -33 50 -56 49 -42 50 -43 50 -101 l0 -58 330 0
330 0 0 133 0 133 50 38 c29 22 50 46 50 57 0 11 -21 34 -50 56 -53 39 -65 71
-30 80 18 5 20 14 20 84 l0 79 -370 0 -370 0 0 -80z m710 1 c0 -48 -3 -60 -18
-63 -14 -4 -17 -13 -14 -44 3 -32 11 -45 48 -73 24 -18 44 -36 44 -40 0 -4
-20 -22 -45 -41 l-44 -33 -3 -131 -3 -131 -302 -3 -303 -2 0 50 c0 54 -8 67
-75 118 l-30 24 30 25 c82 69 75 52 75 173 0 103 -1 110 -20 110 -18 0 -20 7
-20 60 l0 60 340 0 340 0 0 -59z"/>
<path d="M383 604 c-12 -31 25 -44 123 -44 95 0 123 11 110 45 -9 23 -224 22
-233 -1z"/>
</g>
</svg>
